<svg id="thincookie" viewBox="0 0 1000 1000" xmlns="http://www.w3.org/2000/svg">
  <path transform="rotate(-0.3019 471.755 804.598)" stroke="null" id="tail" d="m435.07402,878.72474c-10.33186,-2.79422 56.61893,-22.74937 52.20262,-70.26823c-4.41631,-47.51886 -56.77331,-43.96643 -44.59015,-71.03063c12.18316,-27.0642 66.83559,28.10801 66.83559,73.28262c0,45.17461 -64.1162,70.81046 -74.44806,68.01624z" stroke-width="0" fill="#191919"/>
  <g stroke="null" id="right-leg">
   <rect stroke="null" x="406.90575" y="717.99997" width="63.72" height="115.50179" rx="31.86" fill="#191919" id="svg_1"/>
   <path stroke="null" d="m406.94815,806.03171l0,7.55a31.86,31.86 0 0 0 31.86,31.86a31.86,31.86 0 0 0 31.86,-31.86l0,-7.55l-63.72,0z" fill="#ff7f00" id="svg_3"/>
  </g>
  <g id="left-leg">
   <rect x="509.90575" y="718.07407" width="63.72" height="115.50179" rx="31.86" fill="#191919" id="svg_4"/>
   <path d="m509.94815,806.10581l0,7.55a31.86,31.86 0 0 0 31.86,31.86a31.86,31.86 0 0 0 31.86,-31.86l0,-7.55l-63.72,0z" fill="#ff7f00" id="svg_6"/>
  </g>
  <path fill="#191919" d="m525.24733,580.60351c0,-14.75817 8.49466,-27.16 18.60331,-27.16l57.43326,0c10.10864,0 18.60331,12.40183 18.60331,27.16l0,-0.01c0,14.75817 -8.49466,27.16 -18.60331,27.16l-57.43326,0c-10.10864,0 -18.60331,-12.40183 -18.60331,-27.16l0,0.01z" id="left-hand-upper"/>
  <path fill="#191919" d="m353.00862,576.42702c0,-14.75817 8.49466,-27.16 18.6033,-27.16l57.43326,0c10.10865,0 18.60331,12.40183 18.60331,27.16l0,-0.01c0,14.75817 -8.49466,27.16 -18.60331,27.16l-57.43326,0c-10.10864,0 -18.6033,-12.40183 -18.6033,-27.16l0,0.01z" id="svg_12"/>
  <g id="svg_26">
   <path d="m567.48,782.06998c-15.09,11.65 -100.31,6.51 -134.48,6.93c-22.67,-2.35 -27.84,-12.46 -27.84,-27.84l0,-232.32l161.84,0c-3.63,14.84 28.6,234.03 0.48,253.23z" fill="#191919" id="svg_7"/>
   <rect x="455.67" y="563.24998" width="88.99" height="195.46" rx="27.48" fill="#ff7f00" id="svg_8"/>
  </g>
  <g id="clock">
   <rect id="clock-base" opacity="0.7" rx="33.73" height="122.7" width="405.38" y="623.08146" x="292.5776" transform="rotate(2.47 495.595 685.009)"/>
   <text font-weight="bold" id="clock-text" xml:space="preserve" text-anchor="start" font-family="Rubik-Bold,Rubik;font-weight:700" font-size="78.84545px" stroke-width="0" y="711.41791" x="318.71856" fill="#ffaa56" transform="rotate(2.40101 495.292 684.418)">00:00 <tspan x="21" y="0" style="letter-spacing:-.02499339747885022em"> </tspan><tspan x="22" y="0">AM</tspan></text>
  </g>
  <g stroke="null" id="right-ear">
   <path stroke="null" id="svg_29" d="m569.95654,426.28103c-37.52658,-33.40992 -53.7291,-74.2536 -43.46212,-86.55448c10.26698,-12.30089 41.6883,-0.24493 51.25069,15.93269c9.5624,16.17763 25.97142,22.87599 49.53106,39.06442c23.55964,16.18844 21.25493,55.57768 14.49776,62.78279c-13.51435,14.41024 -34.29082,2.1845 -71.81739,-31.22542l0.00001,0.00001l-0.00001,-0.00001z" fill="#000000"/>
  </g>
  <g id="head">
   <path id="svg_31" d="m492.61631,565.11152c-84.67608,2.24116 -143.0738,-47.33962 -143.0738,-105.78354c0,-58.44391 57.72181,-128.19521 129.73251,-122.81643c36.00535,2.68939 53.80424,13.68513 74.72495,30.41446c20.92072,16.72932 28.23217,62.53936 37.96659,70.65698c9.73443,8.11763 35.9028,14.52992 52.00435,28.91679c47.40621,57.54744 -66.67853,96.37059 -151.3546,98.61176l0,-0.00001l0,-0.00001z" fill="#191919"/>
   <path fill="#ff7f00" d="m570.07498,551.06249c-48.0448,0 -86.96109,-33.75713 -86.96109,-61.26847c0,-13.75567 21.78937,-26.20456 38.79355,-26.23241c82.55123,-5.03666 91.73843,-2.62445 111.84276,-2.54481c20.10433,0.07965 23.28588,15.02154 23.28588,28.77722c0,27.51135 -38.91629,61.26847 -86.9611,61.26847z" id="svg_32"/>
   <ellipse id="svg_2" cx="460.84835" cy="440.93093" rx="17" ry="16.59992" fill="#ffffff"/>
   <ellipse id="svg_9" cx="549.40045" cy="439.8764" rx="17" ry="16.59992" fill="#ffffff"/>
   <ellipse id="svg_11" ry="9.41192" rx="15.88261" cy="352.93194" cx="490.68315" fill="#ff7f00" transform="matrix(-0.855102 -0.133806 0.142775 -0.828375 838.843 768.428)"/>
   <ellipse transform="matrix(-0.857006 0.121635 -0.117065 -0.832211 1060.58 606.925)" ry="9.41192" rx="15.88261" id="svg_16" cy="318.90226" cx="573.9076" fill="#ff7f00"/>
   <path d="m621.69667,478.08731a4.14657,4.6759 0 0 1 0.82616,-5.5543c1.77035,-1.86326 6.13723,-3.22965 12.58918,-2.99897c11.80236,0.41701 13.03767,1.67694 13.8009,5.19939c1.09368,5.05742 -5.3268,12.90974 -13.09276,14.285c0.03934,0 -8.8203,0.75418 -14.12349,-10.93114l0,0.00001l0.00001,0.00001z" id="svg_19"/>
  </g>
  <g id="left-ear">
   <path id="svg_30" d="m368.73188,536.15284c-6.67897,0.54487 -12.17147,-13.86449 -38.72123,-34.0392c-26.54977,-20.17471 -43.50753,-46.74128 -36.0245,-68.76902c7.48303,-22.02775 28.11723,-25.7985 54.33275,-51.39311c26.21553,-25.59461 36.36291,-40.29301 65.70062,-36.4524c29.3377,3.84061 -39.19917,48.32095 -24.13379,103.67596c15.06537,55.355 -14.47488,86.43289 -21.15384,86.97777l-0.00001,0z" fill="#000000" stroke-width="0" opacity="1"/>
   <path id="svg_17" d="m393.11928,470.35979c-1.67831,0.66211 -4.57261,-4.18268 -13.52086,-9.6544c-8.94825,-5.47172 -16.05785,-13.92902 -16.36014,-22.4396c-0.30229,-8.51058 4.67,-11.31329 8.86711,-22.42038c4.19711,-11.10709 5.33341,-17.14435 13.34079,-17.79143c8.00737,-0.64708 -5.25156,20.25359 4.30062,39.28501c9.55219,19.03142 5.05079,32.35869 3.37249,33.0208l-0.00001,0z" fill="#ff7f00" stroke-width="0" opacity="1" transform="rotate(8.34137 379.44 434.23)"/>
  </g>
  <path fill="#191919" d="m555.89042,600.42735c0,-14.75817 8.49466,-27.16 18.6033,-27.16l57.43326,0c10.10865,0 18.60331,12.40183 18.60331,27.16l0,-0.01c0,14.75817 -8.49466,27.16 -18.60331,27.16l-57.43326,0c-10.10864,0 -18.6033,-12.40183 -18.6033,-27.16l0,0.01z" id="svg_5" transform="rotate(64.2932 603.21 600.422)"/>
  <path d="m602.26959,652.44582a27.15,27.15 0 0 0 37.07,-10l9.54,-16.58c-2.46,-6.35 -7.66,-16 -17.64,-21.06c-10.44,-5.29 -22.81,-5.57 -29.92,-5.17l-9.05,15.72a27.16,27.16 0 0 0 10,37.08l0,0.01z" fill="#ff7f00" id="svg_10" transform="rotate(-56 618.767 627.786)"/>
  <g id="svg_14">
   <path transform="rotate(120 368.21 595.422)" fill="#191919" d="m320.89042,595.42735c0,-14.75817 8.49466,-27.16 18.6033,-27.16l57.43326,0c10.10865,0 18.60331,12.40183 18.60331,27.16l0,-0.01c0,14.75817 -8.49466,27.16 -18.60331,27.16l-57.43326,0c-10.10864,0 -18.6033,-12.40183 -18.6033,-27.16l0,0.01z" id="svg_13"/>
   <path d="m341.26959,642.44582a27.15,27.15 0 0 0 37.07,-10l9.54,-16.58c-2.46,-6.35 -7.66,-16 -17.64,-21.06c-10.44,-5.29 -22.81,-5.57 -29.92,-5.17l-9.05,15.72a27.16,27.16 0 0 0 10,37.08l0,0.01z" fill="#ff7f00" id="svg_27"/>
  </g>
</svg>